<svg id="Layer_1" data-name="Layer 1" xmlns="http://www.w3.org/2000/svg" viewBox="0 0 622.63 126.55"><defs><style>.cls-1{fill:#e90000;}.cls-2{fill:#fff;}.cls-3{fill:#e42127;}</style></defs><title>boss-title-logo</title><path class="cls-1" d="M193.07,126.55h-23V102.84H192.8v4.05H176.3v6h12.8v3.41H176.3v6.19h16.77Z"></path><path class="cls-1" d="M541.07,126.55h-23V102.84H540.8v4.05H524.3v6h12.8v3.41H524.3v6.19h16.77Z"></path><path class="cls-1" d="M297.19,126.55h-23V102.84h22.72v4.05h-16.5v6h12.8v3.41h-12.8v6.19h16.77Z"></path><path class="cls-1" d="M231.62,126.55h-6.77l-16.22-15.39v15.39h-5.86V102.84h4.65L225.76,120V102.84h5.86Z"></path><path class="cls-1" d="M461.1,126.55h-6.77l-16.22-15.39v15.39h-5.86V102.84h4.65L455.24,120V102.84h5.86Z"></path><path class="cls-1" d="M579.63,126.55h-6.77l-16.22-15.39v15.39h-5.86V102.84h4.65L573.77,120V102.84h5.86Z"></path><path class="cls-1" d="M266.91,106.89H256.08v19.65h-6.22V106.89H239v-4.05h28Z"></path><path class="cls-1" d="M336.68,126.55h-8l-12.19-13.27,1.49-1.33h11.09v-5.05h-16v19.65h-6.22V102.84h23.43a11.36,11.36,0,0,1,3.58.47q1.39.47,1.39,1.21v9q0,1.71-6.8,1.71l-2,0-1.88,0Q330.69,120.85,336.68,126.55Z"></path><path class="cls-1" d="M370.09,106.89H359.26v19.65H353V106.89H342.13v-4.05h28Z"></path><path class="cls-1" d="M614.91,106.89H604.09v19.65h-6.22V106.89H587v-4.05h28Z"></path><path class="cls-1" d="M405.6,126.55h-6.17L397,121.27H383.06l-2.46,5.27h-6v-.06l12.48-23.71h6.13Zm-10.3-9.32L390,106.57l-5.23,10.66Z"></path><path class="cls-1" d="M420.58,126.55h-6.22V102.84h6.22Z"></path><path class="cls-1" d="M506.9,126.55H501v-15a8.39,8.39,0,0,1,.62-1.86l-11.45,14.65H489l-11.45-14.65a8.81,8.81,0,0,1,.63,1.86v15h-5.86V102.84h5.77l11.36,15.42a2,2,0,0,1,.18.68,2.12,2.12,0,0,1,.18-.68l11.36-15.42h5.77Z"></path><path class="cls-2" d="M170.18,91.26V37.72l-2.13-1.9.36-1.42v-7.7l1.07-9.48V6.93l-.24-2.49L178,5h28.43V42.58l8.77-.36.59.71V91.26Zm23.1-73.79H182.86V34.29l-.36.24v1.42l.71,1.54-.71,1.07.71,1.66-1.07,1.07,1.07.36-.12,1.54H194V18.89ZM202,79.18l-.83-10.54V55.25l-10.31.95h-7.82l-.36,2.13V79.18l2.61.36h10.42Z"></path><path class="cls-2" d="M271.21,91.26H225.73V36.18l-1.42-7.82V18.65l.59-1.42V4.44l13,.59h31.62V60.58ZM257.47,79.18V40.8l-1.18-21.91-.83-1.42H237.34l1.3,20-.71,1.07.71,1.66-.95,1.07.95.36V79.18Z"></path><path class="cls-2" d="M326.09,75.86l-1.66,7.82v2.84l.95,1.54-.47,4L316,91.62l-1.18.24H280.61l-.83-2.49L279,81.9V56.56l.47-.71,5-.24h7.7v5.57l.83,1.18-.71.59V73.73l-.36.95.59,5.09h20.73l-1.3-21.08L278.59,42.82V5.74h18.71l.59-.47,2,.24.47.47,3.79-.71.59.71L308.44,5l1.89.12.36.59,9-.71.59.71,2.72.83.47,5.21-.71.36,1.42,2v3.32l-.47.83.83,1.54V40.21l-12-1.07-1.07-3.79V19.48l-2.13-.24-5.57.36h-13v4.62l.71,1.18-.47,1.3v2.84l.47.47-.36,1.07v2.49l1.54,1.19L320,49v.95l5.33,2.37v.83l-.59.36.71,16.94-.71,3.43.83.47.12,1.3Z"></path><path class="cls-2" d="M379.67,69.23v23H333.47L332.76,91v-1.3l.59-2.25V55.14l.47-.47,3.91.47h7.93V79.42l.83.71h6.75l.83-.71.36.47h12.67l-.71-4.15V60.23l-20.73-13-11.13-8.05h-.83l-.83-2.25V32.51l-.83-9.83V5h32.1l14-.47v30l-.95.36-6.87-.36-3.55.36-.71-.71V17.12l-1.54-.95L361,15.46h-2L358,16.52H344.84v6l.71,7.94,25,16.34,9,5.33V68.76Z"></path><path class="cls-2" d="M429.3,20.19H400.51v20l2.37.83h5.45l12-.95v6.4l.83,8.65-.95,2.13h-20v9.95l1.07,3.67-1.54,20.49H398.5L394,90.19l-6.16.47-.59-10.78V26.12l1.07-20.85h41Z"></path><path class="cls-2" d="M451.44,5.63V81.55L450.38,94.1,436,92.21v-85L435,6.81l2.25-1.18Z"></path><path class="cls-2" d="M508.69,91.73l-1.18.36H495.19l-1.54-.59L488,92h-6.28l-5.92-.83h-4.15l-.71.71-1.78-.36h-6.87l-.83-11.73V52.17L459.65,22.8v-16l.71-2,5.09.47h39.8l.83,1.3-.47,4.15v3.79l.59,3-.47,1.78.24,1.54v-.12l1.42,13.38H493.65V19.6l-1.07-.71h-19.9l-.12.83-.83,1.18,1.19.59V53.12l.24.59.59.12-1.07,2.37.95.71L473,65.2l1.07.71-.95,2.61.24,5.33.71.36-.12.59-.59.59.59,2-.24.95,21.2-1.3-.24.47h.83l.24-2.37-1.42-21.91H480.74l-.95-13,1.18.59h20.49l6.28-.59V56l.95,11Z"></path><path class="cls-2" d="M548.84,92.44l1.3-1.78.59-2.61L548.37,54H534.15L532.73,55l1.54,38.26-2.13-.83H519.47l-3.32-59.22V2.55H531l2.25,35.77h16.34l1.07-1.54v-3L549.31,26V6.57l-.47-4.5,4.86.24,9.59-.83L564,3.14l-.24,3,1.3,13.62,1.42,30.91V74.2l-.59,14.45.83,1.89.24,1.9Z"></path><path class="cls-2" d="M622.63,20.67h-18V94.22l-9.36-.83-2.13.95-2.25-.12v-25l-.24-1.07.47-.71-.95-10.54-.47-.59,1.18-2.84V20.67H573V6h49.39V8.71L622,9.77l.59,1.18Z"></path><path class="cls-3" d="M127.55,0s.08.07.13.07l1,.1a6.2,6.2,0,0,1,1.22.18,16.24,16.24,0,0,1,3.93,1.39,15,15,0,0,1,2.78,1.82A19.49,19.49,0,0,1,138.17,5a16.13,16.13,0,0,1,2.42,3.26A15.91,15.91,0,0,1,142,11.64a16.48,16.48,0,0,1,.5,2.25,16,16,0,0,1,.17,2.39v93.24a16.09,16.09,0,0,1-.24,2.06,15.56,15.56,0,0,1-.95,3.33,16.19,16.19,0,0,1-1.75,3.4,18.29,18.29,0,0,1-1.57,1.88,11.71,11.71,0,0,1-1.1,1c-.4.33-.84.64-1.25.95a15.55,15.55,0,0,1-5.44,2.45,12.14,12.14,0,0,1-1.82.32L128,125a5.11,5.11,0,0,1-2.07-.28,20.31,20.31,0,0,0-2.66-.57l-1.81-.26-2.25-.25c-.85-.1-1.7-.21-2.53-.33s-1.39-.26-2.19-.39a2.66,2.66,0,0,1-.86-.1l-1.11-.1-1.14-.22h-.77l-1.89-.18-1.81-.24-1.1-.13-1.18-.15-.82-.08-1.16-.1-1.1-.14-1-.1a10.45,10.45,0,0,1-1.85-.19,3.86,3.86,0,0,1-1.14-.19c-.33-.17-.7-.26-1-.4l-4-1.57-3.69-1.39L85,116.08l-3.69-1.39-3.77-1.39a1,1,0,0,1-.52-.39c-.77-1.11-1.55-2.23-2.32-3.34l-3.41-4.86-3.7-5.26c-.92-1.29-1.85-2.59-2.78-3.88l-3.35-4.65a2.62,2.62,0,0,1-.6-1.39L60,85.71l-1.09-4.61c-.21-.9-.4-1.82-.63-2.78-.38-1.57-.77-3.15-1.14-4.73-.14-.6-.26-1.21-.42-1.85l4.37-12.68,8.63-5.76L77,48.4A2.78,2.78,0,0,1,78,48c.89-.22,1.8-.4,2.69-.61l3.41-.82c.72-.18,1.39-.4,2.14-.6l3.22-.92c1-.31,2.06-.5,3.09-.72.46-.1.93-.13,1.39-.19.74-.11,1.49-.14,2.23-.19a13.06,13.06,0,0,1,1.39,0c.6,0,1.18.08,1.78.14l2,.18,1.39.08,1.39.08a5.32,5.32,0,0,1,.86.08,2.17,2.17,0,0,1,.64.29,21.38,21.38,0,0,1,2.24,1.64l2.19,1.8c.57.47,1.14,1,1.73,1.39a25.53,25.53,0,0,0,3.15,2.3,3.24,3.24,0,0,0,1.39.46l.21.29a.67.67,0,0,0,0-.21q-.31-.88-.63-1.75c-.32-.86-.63-1.74-1-2.6-.53-1.39-1-2.78-1.6-4.18-.77-1.95-1.56-3.88-2.34-5.83a2.27,2.27,0,0,0-.78-1c-.45-.32-.85-.71-1.28-1.07l-2.09-1.8L105,32.85c-.86-.67-1.73-1.39-2.6-2-1.27-.95-2.53-1.88-3.87-2.78a2,2,0,0,0-.45-.21c-1.11-.36-2.21-.74-3.33-1.09l-4.54-1.39a3,3,0,0,0-.89-.13H84.72c-1.55,0-3.23,0-4.84.07a3.66,3.66,0,0,0-.92.22l-5.37,1.59c-.84.25-1.67.45-2.49.72s-1.39.52-2,.78l-6.33,2.53a12.75,12.75,0,0,0-2.13,1.1L56.13,35l-5.57,3.51-1.66,1a3.34,3.34,0,0,0-.77.7l-1.52,1.77-1.81,2.12-1.39,1.53-1.81,2.12-1.22,1.39c-.49.56-.93,1.14-1.39,1.67a3.1,3.1,0,0,0-.72,1.39c-.56,1.74-1.13,3.48-1.68,5.22L35.2,61.86l-1.53,4.82-.42,1.39a.81.81,0,0,0,0,.28,1.84,1.84,0,0,0,.07.61c.07.21.1.71.15,1.06a6.52,6.52,0,0,0,.08.82c.08.28,0,.75.1,1.11s.15,1.14.22,1.71a2.75,2.75,0,0,0,.08.82,17.41,17.41,0,0,0,.18,1.89c.07.63.15,1.2.24,1.8a3.41,3.41,0,0,0,.1,1,7.31,7.31,0,0,1,.14,1.14c0,.38.07.57.1.86a8.91,8.91,0,0,0,.1,1.61c.1.53.1,1,.15,1.48v.08a8.91,8.91,0,0,0,.1,1.61c.1.53.1,1,.15,1.56v.08a8.91,8.91,0,0,0,.1,1.61,3.66,3.66,0,0,0,.11,1l1.66,3.23L38.36,96c.65,1.29,1.39,2.58,2,3.88a37.07,37.07,0,0,0,2.78,4.5c.43.63.84,1.27,1.27,1.89l3.79,5.4c.26.38.52.75.81,1.11a2.19,2.19,0,0,0,.54.45l3.94,2.46,4.59,2.78,2.06,1.25,1,.58,3.13,1.7,3.93,2.23a2.62,2.62,0,0,0,.78.25c.64.14,1.29.24,1.95.36l.53.14H59.86l-1.93-1-1.53-.84c-.88-.47-1.77-.92-2.63-1.39a7.64,7.64,0,0,1-1-.77,35.44,35.44,0,0,1-3.35-3.2c-.75-.79-1.39-1.64-2.17-2.48-1.39-1.55-2.58-3.19-3.8-4.83-.56-.75-1.1-1.53-1.63-2.3-1-1.39-1.89-2.78-2.88-4.18a5.07,5.07,0,0,1-.74-1.55q-.71-2.37-1.39-4.73l-1.64-5.44-1.24-4.18-1-3.31a.89.89,0,0,1,0-.19q0-.85-.08-1.7a17.79,17.79,0,0,0-.1-2.28,11.44,11.44,0,0,0-.08-1.39c0-.67-.1-1.39-.15-2v-.08a20.48,20.48,0,0,0-.1-2.45c-.1-.81,0-1.22-.08-1.82s0-.95-.08-1.39,0-1.11-.08-1.66a.45.45,0,0,0-.11-.28,1.75,1.75,0,0,1,0-1.1l1-3.77c.25-.9.49-1.8.77-2.7q.65-2.21,1.39-4.41c.5-1.64,1-3.27,1.53-4.93a2.91,2.91,0,0,1,.54-1l3.08-3.76,2.56-3.27L45,42l2-2.52,1.39-1.7a2,2,0,0,1,.61-.49l2.51-1.39,3.58-2,2.39-1.39,3.1-1.75,3.16-1.84,3.59-2.16L70,25.19a1.73,1.73,0,0,1,.61-.14c.53-.08,1.07-.13,1.6-.19l1.6-.26,1.6-.18,1.55-.24.78-.1,2.46-.33,1.6-.18,1.5-.22.82-.1,1.8-.24,1.6-.18h.13a1.39,1.39,0,0,1,1,0l3.47.89,4.38,1.14,3.12.78c.78.19,1.57.39,2.35.6a1.11,1.11,0,0,1,.43.31l3.83,3.8,3.8,3.83c.93.92,1.87,1.84,2.78,2.78a3,3,0,0,1,.75,1.16c.17.4.38.81.56,1.2l1.74,3.76,1.71,3.69c.33.72.65,1.46,1,2.17a5.26,5.26,0,0,1,.46,1.49c.1.5.21,1,.31,1.49s.24,1.29.36,1.95.26,1.27.39,1.89.25,1.27.36,1.91a24.82,24.82,0,0,0,.68,2.92,9.17,9.17,0,0,1,.42,1.93,13.15,13.15,0,0,0,.25,2c.1.61.22,1.48.32,2.21s.11,1.13.18,1.68.17,1,.24,1.55.11,1.07.18,1.6.17,1.09.24,1.63a3.13,3.13,0,0,0,.1.95,5.23,5.23,0,0,1,.13.9c0,.31.07.63.11.95.08.58.15,1.17.24,1.75a7.31,7.31,0,0,0,.11.95c-.58,1.11-1.18,2.2-1.74,3.31-.71,1.39-1.39,2.92-2.07,4.38l-.64,1.39a.92.92,0,0,1-.22.25l-1.6,1.39c-.78.71-1.57,1.39-2.32,2.16q-2.63,2.61-5.23,5.23l-6.17,6.33-.15.17h.22l1.91-.92,4.79-2.3,4-1.92,4.86-2.34a1.64,1.64,0,0,0,.43-.31L124.2,91l4.29-4.34c.53-.53,1.09-1,1.61-1.56a2.14,2.14,0,0,0,.75-1.13c.64-1.59,1.29-3.16,1.95-4.75s1.39-3.12,2-4.68a42.19,42.19,0,0,0,1.61-4.37c.26-.88.49-1.78.71-2.67a8.35,8.35,0,0,0,.14-.86.57.57,0,0,0,0-.19l-.67-3.1c-.22-1-.35-1.78-.53-2.67-.24-1.18-.5-2.37-.74-3.55-.18-.93-.33-1.87-.53-2.78-.24-1.18-.49-2.37-.74-3.55-.1-.47-.15-.95-.28-1.39a3.66,3.66,0,0,0-.35-.79c-.38-.71-.77-1.39-1.14-2.09l.78-3.33.38-1.52a.5.5,0,0,0,0-.39l-4.38-.88-1-2-2.58-5a1.82,1.82,0,0,0-.52-.64c-.32-.25-.6-.53-.89-.81l-1.18-1.11a10.93,10.93,0,0,0-.1-1.78l-.17-2.49a9.05,9.05,0,0,0-.11-1c-1.28.42-2.55.88-3.84,1.39l-.28-.19-1.32-1.21-2.51-2.27-1.09-1L112,20.88l-2.25-2-1.56-1.39-.32-.29-1.46-7.42-.28-.11-5.44,4.57L86.31,10.51,82,4c-.45.89-.79,1.78-1.18,2.66L79.59,9.33,78.42,12,64.25,16.7l-.31-.17-4-2.62-4.09-2.78a.5.5,0,0,0-.42-.14L52.79,22.3l-1.63.79-.71.33-4.7,2.25-3.63,1.73L38.83,29,26.22,24.27a1.18,1.18,0,0,0,0,.5v7.77c0,2.59,0,5.15-.07,7.78l-5.08,5.9L9,49.18a1.27,1.27,0,0,0-.07.84,15,15,0,0,0,.29,1.59,30.62,30.62,0,0,0,1,3.27c.6,1.7,1.22,3.38,1.82,5.09.29.84.54,1.67.81,2.52a1.6,1.6,0,0,1,.08.53,3.41,3.41,0,0,1-.1,1,3.53,3.53,0,0,0-.26.86c-.1.71-.18,1.39-.26,2.13a2.14,2.14,0,0,1-.1.32l-.54.5L9.25,70.1,6.19,73c-.77.71-1.53,1.39-2.28,2.14-.46.45-.86.95-1.28,1.39l-.86,1,1.87,1.77.15.14L6.29,81.8l3.06,2.9,1.39,1.39,2.62,2.45.29.25a12.19,12.19,0,0,0,.11,2,8.54,8.54,0,0,1,.17,1.64v.08a13.15,13.15,0,0,0,.1,2c.1.6.07,1,.11,1.48l-1.6,1.74L11,99.65l-.7.78c-.57.63-1.16,1.25-1.7,1.89-.84,1-1.73,1.89-2.63,2.78l-.13.15.19.15,4.5,2.13,2.69,1.29,3.9,1.85h.1c.11.52.24,1,.35,1.57s.29,1.48.45,2.23.38,1.77.56,2.66.26,1.39.43,2.06a7.75,7.75,0,0,0,.38,1l1.55,3.72c.15.38.31.74.49,1.14H16.3a17.78,17.78,0,0,1-2-.15,14.45,14.45,0,0,1-3.37-.77,16,16,0,0,1-3.31-1.61,16.26,16.26,0,0,1-5.48-5.71,15.52,15.52,0,0,1-1.31-3,14.78,14.78,0,0,1-.58-2.44c-.08-.54-.13-1.1-.18-1.64A24.48,24.48,0,0,1,0,107.18V16.35c0-.68.08-1.39.14-2A15.19,15.19,0,0,1,.92,11,16.16,16.16,0,0,1,5.58,4.09,16.3,16.3,0,0,1,11.86.61,11.14,11.14,0,0,1,14.12.17l1-.1A.47.47,0,0,0,15.32,0ZM85.22,70.75l-.14.18a2.21,2.21,0,0,0-.17.29A14.39,14.39,0,0,0,84,73.91a6.07,6.07,0,0,0-.24,1.67v.53a16.7,16.7,0,0,0,.17,2.06,8.8,8.8,0,0,0,.4,1.81,1.39,1.39,0,0,0,.58.75,1,1,0,0,0,.65-.25,8.94,8.94,0,0,0,1.59-1.39A2.78,2.78,0,0,0,87.8,78c.11-.29.19-.6.31-.93l1.95-.52a5.23,5.23,0,0,0,.39,1.21,5.68,5.68,0,0,1,.25,2.34.93.93,0,0,1-.18.5,2.49,2.49,0,0,1-1.16.85,6.29,6.29,0,0,1-.81.17c-.54.11-1.09.19-1.61.32q-1.39.33-2.67.71a1.39,1.39,0,0,0-.72.36,1.93,1.93,0,0,0,.19,1A36.66,36.66,0,0,1,85,88.64,4.73,4.73,0,0,0,85.5,90a.63.63,0,0,0,.47.38,14.1,14.1,0,0,0,.5-2.64c.08-.92,0-1.82.07-2.78a2.48,2.48,0,0,1,.43,0,2.6,2.6,0,0,0,.89,0c.5-.08,1-.24,1.48-.35a5,5,0,0,1,1.39-.21.9.9,0,0,1,.4.49,11.41,11.41,0,0,1,.6,2.1,3.65,3.65,0,0,0,.39,1.17,2.78,2.78,0,0,0,1.48,1.21,12.86,12.86,0,0,1,2.13,1,4.55,4.55,0,0,0,.46.19.61.61,0,0,0,.68-.1l-1.09-1.61a4,4,0,0,0-.5-.56q-.29-.27-.58-.5c-.17-.9-.45-1.74-.56-2.62a5.86,5.86,0,0,1,.07-1.48,12,12,0,0,1,.28-1.55,4.91,4.91,0,0,1,1-2.39,5,5,0,0,0,.9-1.28.43.43,0,0,1,.57,0,1.55,1.55,0,0,0,.79.18,10.27,10.27,0,0,1,1.22.15c.42.08.82.19,1.24.29a1.2,1.2,0,0,0,1.14-.19l.82-.7a4.09,4.09,0,0,1,.78-.57c.17.39.15.86.58,1.07a.52.52,0,0,0,.49-.18c.13-.11.22-.25.35-.35a2,2,0,0,0,.71-1.22,5.16,5.16,0,0,0,1.56-1.24l-.22-.33c-.31-.14-.68-.08-1-.35l.54-1.09,1.85-3.72a1.55,1.55,0,0,0,.21-.88,4.73,4.73,0,0,0-.07-1c0-.93-.07-1.87-.1-2.78a1.59,1.59,0,0,0-.11-.52l-.65.75c-.67.78-1.39,1.56-2,2.34a2,2,0,0,0-.56,1,1.35,1.35,0,0,1-.1.61c-.1.56-.21,1.11-.31,1.66s-.18,1.11-.28,1.67-.14.75-.19,1.11c-.46.07-.74-.25-1.09-.4l-.39.14a4.7,4.7,0,0,0,.25,1.73,1.74,1.74,0,0,1-.72.47c-.5.21-1,.38-1.55.6a1,1,0,0,1-.65,0,3.34,3.34,0,0,1-2.27-1.48A1.63,1.63,0,0,0,97,75c-.21-.19-.5-.31-.65-.63.24-.49.74-.84.95-1.39a.46.46,0,0,0,0-.17,2.92,2.92,0,0,0-1.59-1.92,3.09,3.09,0,0,0-1.16-.28c-.63,0-1,.13-1.13.63s-.32.85-.47,1.28a1.8,1.8,0,0,1-.17.53,2.14,2.14,0,0,1-1.39.29,3.17,3.17,0,0,0-2.49,1l-.32.31.08-1.39-.36-.35-1.13-1c-.36-.31-.72-.6-1.07-.92A.92.92,0,0,0,85.22,70.75Z"></path><path class="cls-3" d="M47.88,55.54h1.46a2.12,2.12,0,0,1,1.27.65,4.51,4.51,0,0,1,1.28,2.27,9.88,9.88,0,0,1,.28,1.67,10,10,0,0,1-.1,2.14,10.19,10.19,0,0,1-1.14,3.61,7.45,7.45,0,0,1-1.55,2,4.34,4.34,0,0,1-5.57.42A2.78,2.78,0,0,1,42.76,67a5.8,5.8,0,0,1-.32-1.61,9.66,9.66,0,0,1,0-1.52A12,12,0,0,1,42.78,62a15.31,15.31,0,0,1,1.39-3.45,5.26,5.26,0,0,1,1-1.39,5.64,5.64,0,0,1,1.22-.84ZM45.6,67.2a7.61,7.61,0,0,0,2.09.28,1.91,1.91,0,0,0,1-.35A4.41,4.41,0,0,0,49.74,66a10.37,10.37,0,0,0,1.32-2.58,8.78,8.78,0,0,0,.45-2.2,6.1,6.1,0,0,0,0-1.7,3.15,3.15,0,0,0-.57-1.39,2.14,2.14,0,0,0-1.39-.92l-.93-.17c-.22.19-.46.38-.68.58a12.18,12.18,0,0,0-2.32,2.91,9.42,9.42,0,0,0-.74,1.7,6,6,0,0,0-.25,2.3,5.28,5.28,0,0,0,.15.89,5,5,0,0,0,.84,1.75Z"></path><path class="cls-3" d="M44.55,76.11a5.41,5.41,0,0,1,1.93.64,6.47,6.47,0,0,1,1.32.93,11,11,0,0,1,2.94,4.84,8.84,8.84,0,0,1,.4,3.52,5.86,5.86,0,0,1-.58,2.19,2.46,2.46,0,0,1-1.73,1.39,3.79,3.79,0,0,1-2.9-.54,7.2,7.2,0,0,1-2.31-2.46A11.05,11.05,0,0,1,42.24,83a8.62,8.62,0,0,1-.18-2.48,6.63,6.63,0,0,1,.67-2.59A4.18,4.18,0,0,1,44.55,76.11Zm5.26,11.71a.42.42,0,0,0,.08-.1,8.46,8.46,0,0,0,.52-2.12,6.6,6.6,0,0,0-.19-2.31,8.35,8.35,0,0,0-2-3.54,9,9,0,0,0-2.12-1.67,2.24,2.24,0,0,0-.81-.36l-.07.07-.08.14a7.21,7.21,0,0,0-.81,3.17A8.35,8.35,0,0,0,44.47,83a7.7,7.7,0,0,0,1,2.87,4.38,4.38,0,0,0,1.63,1.63,3.74,3.74,0,0,0,2.7.36Z"></path><path class="cls-3" d="M55,96.81a5.21,5.21,0,0,1,2.27.49,9.42,9.42,0,0,1,2.2,1.39,12.53,12.53,0,0,1,2.78,3.2,8.46,8.46,0,0,1,1.13,2.64,4.3,4.3,0,0,1,0,2.3,3,3,0,0,1-2.16,2,3.16,3.16,0,0,1-1,.15,5.05,5.05,0,0,1-1.09-.19,5.4,5.4,0,0,1-1.95-1.06,10.43,10.43,0,0,1-2.78-3.56,9,9,0,0,1-.95-2.94,5.26,5.26,0,0,1,.33-3A3.51,3.51,0,0,1,55,96.81Zm7.68,9.55c0-.32-.08-.6-.1-.89a6.63,6.63,0,0,0-.61-2.34,8.85,8.85,0,0,0-1.78-2.69,6.81,6.81,0,0,0-2.53-1.75,3.86,3.86,0,0,0-1.78-.29,5.36,5.36,0,0,0-.28,3.34,7.39,7.39,0,0,0,1.27,2.78,6.83,6.83,0,0,0,3,2.25,5.14,5.14,0,0,0,2,.38Z"></path><path class="cls-3" d="M68.94,43.15a4.41,4.41,0,0,1-.6,2.58,9.85,9.85,0,0,1-1.52,2.12A11.59,11.59,0,0,1,64.18,50a7.4,7.4,0,0,1-2.7,1,4.18,4.18,0,0,1-3-.56,2.37,2.37,0,0,1-1-1.39,4.43,4.43,0,0,1-.17-1.39,5.9,5.9,0,0,1,.45-2.13,4.18,4.18,0,0,1,1.61-1.8,11,11,0,0,1,2.24-1,30.89,30.89,0,0,0,2.94-1.09,1.74,1.74,0,0,1,1-.08,5.22,5.22,0,0,1,2.87,1.39A1.43,1.43,0,0,1,68.94,43.15Zm-.63,1.39a.5.5,0,0,0-.08-.33,1.39,1.39,0,0,0-.75-1,2.78,2.78,0,0,0-1-.32,2.45,2.45,0,0,0-.95,0c-.63.17-1.22.4-1.84.63a13,13,0,0,0-2.21.9,3.94,3.94,0,0,0-2,3.44l.42.84a.4.4,0,0,0,.31.25,5.25,5.25,0,0,0,1.22.17l.86-.07A5.19,5.19,0,0,0,64,48.62a9,9,0,0,0,2.38-1.71A12.22,12.22,0,0,0,68.31,44.54Z"></path><path class="cls-3" d="M88.94,38.18a4.55,4.55,0,0,1-1.74,1.53,14.09,14.09,0,0,1-3.67,1.39,11.76,11.76,0,0,1-1.75.31,9.53,9.53,0,0,1-1.53,0,4.18,4.18,0,0,1-2.38-.72,2.78,2.78,0,0,1-1.21-2.58,2.2,2.2,0,0,1,.5-1.07,5.28,5.28,0,0,1,1.55-1.31,17.05,17.05,0,0,1,2.78-1.39c.38-.14.74-.31,1.1-.47a1.73,1.73,0,0,1,.88-.18h1a6.32,6.32,0,0,1,2.87.84,3.4,3.4,0,0,1,1.61,2.35A7.85,7.85,0,0,1,88.94,38.18Zm-9.74,0a2.49,2.49,0,0,0,.26,1.39,15.06,15.06,0,0,0,1.66.24,17.79,17.79,0,0,0,2.7,0,10.76,10.76,0,0,0,2.64-.61,3.54,3.54,0,0,0,1.39-1,1.67,1.67,0,0,0,.42-.88c-.1-.11-.21-.21-.29-.32a4,4,0,0,0-1.39-1.16,6.26,6.26,0,0,0-2.07-.5.7.7,0,0,0-.32.07c-.63.25-1.25.49-1.88.75A17,17,0,0,0,80.7,37a4.52,4.52,0,0,0-1.55,1.2Z"></path><path class="cls-3" d="M68.7,114.86c.39-.68,1.09-.85,1.67-1.17h1.17a7.78,7.78,0,0,1,3.69,1.09A6.21,6.21,0,0,1,77,116.39a10.31,10.31,0,0,1,1.24,2.2c.15.38.35.72.5,1.09A1.73,1.73,0,0,1,78,122a3,3,0,0,1-2.09.45,7.35,7.35,0,0,1-1.8-.45,9.26,9.26,0,0,1-2.41-1.39,11.39,11.39,0,0,1-1-.84,7.68,7.68,0,0,1-1.39-1.88,4.5,4.5,0,0,1-.6-2.32C68.72,115.32,68.7,115.07,68.7,114.86ZM78,120.62a.43.43,0,0,0,.08-.57c-.11-.19-.17-.4-.26-.6a9.16,9.16,0,0,0-1.87-2.78,5.67,5.67,0,0,0-3.52-1.49h-.54l-.89.26v.65l.14.29a.91.91,0,0,0,.14.35,8.35,8.35,0,0,0,2.91,3.19,4.87,4.87,0,0,0,2.9.85Z"></path><path class="cls-3" d="M103.33,39.84a2,2,0,0,1-1.67,1.2,5.65,5.65,0,0,1-4-.78,3.38,3.38,0,0,1-1.1-.93,1.6,1.6,0,0,1-.32-1.52,3.22,3.22,0,0,0,.08-.4,1.14,1.14,0,0,1,.74-.84,8.67,8.67,0,0,1,.93-.31.54.54,0,0,1,.28,0c.86.24,1.73.47,2.58.74a4.18,4.18,0,0,1,1.57.9,2.53,2.53,0,0,1,.74,1.28A2.37,2.37,0,0,1,103.33,39.84Zm-.93-.57a4.57,4.57,0,0,0-3.93-1.39h0a.33.33,0,0,0,0,.11,3.84,3.84,0,0,0,2.07,1.5A2.27,2.27,0,0,0,102.4,39.27Z"></path></svg>